<svg xmlns="http://www.w3.org/2000/svg" viewBox="0 0 2880 1800"><defs><style>.cls-1,.cls-8{fill:#fff;}.cls-2{fill:#b3daff;}.cls-3,.cls-4{fill:none;stroke:#ffffa6;stroke-miterlimit:10;}.cls-3{stroke-width:50px;}.cls-4{stroke-width:30px;}.cls-5{fill:#b3b8ff;}.cls-6{fill:#ffffa6;}.cls-7{fill:#333;}.cls-8{font-size:72px;font-family:GlacialIndifference-Regular, Glacial Indifference;}.cls-9{fill:#ffa6a6;}.cls-10{fill:#ffcaa6;}.cls-11{fill:#a6ffad;}</style></defs><title>background-home</title><g id="Background"><rect id="Base" class="cls-1" width="2880" height="1800"/></g><g id="Artboard"><circle id="Blue_Circle" data-name="Blue Circle" class="cls-2" cx="567.55" cy="261.54" r="129.72"/><g id="Yellow_Zig_Zag" data-name="Yellow Zig Zag"><path class="cls-3" d="M-13.08,344.34c58.11-20.1,84.26,55.51,142.36,35.41S161.23,284,219.34,263.94s84.26,55.51,142.36,35.41,31.95-95.71,90.06-115.81S536,239,594.13,218.94s32-95.7,90.06-115.8"/></g><line id="Yellow_Line" data-name="Yellow Line" class="cls-4" x1="2492.48" y1="800" x2="2665.53" y2="1543.05"/><rect id="Purple_Rectangle" data-name="Purple Rectangle" class="cls-5" x="2566.72" y="1145.81" width="330.56" height="330.56" transform="translate(532.35 -773.21) rotate(17.82)"/><polygon id="Triangle" class="cls-6" points="1388.66 1154 1980.39 515.67 2031.95 1240.38 1388.66 1154"/><circle id="Blue_Circle-2" data-name="Blue Circle" class="cls-2" cx="1814.44" cy="543.72" r="282.17"/><g id="Screen"><rect id="Background-2" data-name="Background" class="cls-7" x="940" y="480" width="1000" height="640" rx="25.01"/><text class="cls-8" transform="translate(1298.63 821.17)">Welcome</text><g id="Controls"><circle id="Close" class="cls-9" cx="973.5" cy="512.5" r="7.5"/><circle id="Reduce" class="cls-10" cx="998.5" cy="512.5" r="7.5"/><circle id="Open" class="cls-11" cx="1023.5" cy="512.5" r="7.5"/></g></g><circle id="Orange_Circle" data-name="Orange Circle" class="cls-10" cx="1006.84" cy="1037.05" r="187.47"/></g></svg>