<svg id="Map" xmlns="http://www.w3.org/2000/svg" viewBox="0 0 2880 1800"><defs><style>.cls-1{fill:#b3daff;}.cls-2{fill:#ffffa6;}.cls-3{fill:#ffcaa6;}.cls-4{fill:#333;}</style></defs><title>background-about</title><circle class="cls-1" cx="321.93" cy="484.36" r="299.31"/><circle class="cls-2" cx="564.23" cy="1261" r="385.3"/><g id="Countries"><g id="Colored"><path class="cls-3" d="M673.14,305.86l.31.4Z"/><path class="cls-3" d="M672.18,304.65c.15.2.3.38.45.56C672.48,305,672.33,304.85,672.18,304.65Z"/><polygon class="cls-3" points="697.44 311.42 697.29 312.09 697.44 311.42 697.44 311.42"/><path class="cls-3" d="M672.74,305.35l.29.37Z"/><path class="cls-3" d="M742.91,419.66l.14,0Z"/><path class="cls-3" d="M732.26,423.89a3.43,3.43,0,0,1-.79.45A3.43,3.43,0,0,0,732.26,423.89Z"/><path class="cls-3" d="M743.06,419.69a9.76,9.76,0,0,1,2,.66A9.16,9.16,0,0,0,743.06,419.69Z"/><path class="cls-3" d="M742.86,419.66h0Z"/><path class="cls-3" d="M667.39,298.87l-.36-.43h0Z"/><path class="cls-3" d="M671.68,304l.46.56Z"/><path class="cls-3" d="M667.54,299.06l.31.36Z"/><path class="cls-3" d="M703.65,429.72c0-2.12-9-3.71,2.65-5.3s5.83-3.17,11.65-1.59a37,37,0,0,0,8.48,1.59,8.88,8.88,0,0,0,5-.08L720.6,409.06V391s-4.76-9-6.35-10.6-3.18-5.82-3.18-5.82l-1.59-13.25-3.71-1.06-3.71-24.37-11.66-4.77-27.55-10.6-2.65-6.36-5.3-4.77L642.18,311l2.12,8.48,4.24,7.42,1.06,10.6-3.18,2.11-13.77-2.11s-6.89-3.18-7.95,0l-2.65,7.94v10.6s1.59,2.65,0,3.18-8.48.53-8.48.53L603.5,363l-7.94,20.66s3.7,11.13,4.23,13.25a23.77,23.77,0,0,1,.53,5.83c0,1.59-3.71,9-3.71,9l-9,8.47-.53,6.36,3.71,3.71s1.59,3.71,0,4.24-5.83,2.12-5.83,2.12l-10.6,4.24,6.89,28.61-11.66,24.38,4.77,9s4.77,1.06,5.3,4.24-.53,14.31-.53,14.31H557.4l-7.94,3.71L545.75,532l-1.59,12.71L541.51,559,550,603l-3.18,6.89,13.77,9v7.41l-3.18,13.78h-6.35l3.71,9s4.23,7.95,5.29,9.54-5.82,22.78-5.82,22.78-3.71,2.12-4.24,3.71-3.71,8.48-3.71,8.48l1.06,12.18,3.18,8-6.89,9L539.39,719l-5.3-1.59c.53,2.12,2.12,7.42,2.12,7.42L538.86,745h7.95l8.47-1.06-4.76,23.85,1.59,4.24,7.41,3.71-1.06,5.3v3.18l6.36,4.23s4.24,11.66,5.3,13.78,10.07,6.89,10.07,6.89v6.36c0,2.65-3.18,9-3.18,9s-7.42,0-7.42,2.11,1.59,5.83,1.59,5.83,5.83,3.18,6.89,4.77,11.13,9,11.13,10.6-8.48,6.89-4.24,8.48,23.84,2.65,23.84,2.65,7.42-2.12,7.42-4.24,1.06-2.12,0-5.3a61.45,61.45,0,0,0-3.71-8l1.06-5.83,5.3-3.18,3.18-5.3,1.06-3.7,6.36-3.18h15.36s4.77,9.53,4.77,5.29,4.77-22.25,5.83-24.37,5.3-20.13,4.77-22.78-2.65-12.19-2.65-12.19S656,747.64,656,746.05s-.53-19.07-.53-19.07l-.53-5.83,12.19-7.95,4.77-5.83L676.1,709a27,27,0,0,0,3.7-3.18l5.83-5.82,1.59-2.65V692l-8-.53a37,37,0,0,1-5.29,3.71c-2.12,1.06-5.83,1.59-8,2.12a19.86,19.86,0,0,1-4.24.53l-4.24-4.77-3.71-.53L640.59,691H635.3s-1.06-4.24,1.58-4.24h25.44s5.3-8,6.89-8a2.36,2.36,0,0,1,2.12,1.59l1.59,7.42,17-11.13,2.12-5.3-4.77-10.59-8.48-2.12-4.23-3.71-3.18-3.71-11.66-5.3-7.95-2.65L649.6,639,647,606.7v-8.48l-.53-3.18,3.18-4.24L647,586.56s-.53,0-2.65-3.18-3.18-2.64-3.18-4.76,1.59-8.48,1.59-8.48h5.83l5.83-.53,1.06-20.67,8-2.65,1.59-3.18,1.59-8.47,10.59-1.59s6.36-22.79,9-24.38,11.13-4.24,12.72-9,2.65-9,2.65-9l1.06-13.25s-9.54-4.24-9.54-5.83,1.06-7.42,1.06-7.42l2.65-9.53.53-6.89,5.83-5.3s5.3-.53,4.77-2.65S703.65,431.84,703.65,429.72Z"/><path class="cls-3" d="M668.55,300.25l.55.67Z"/><path class="cls-3" d="M668.06,299.67l.38.46Z"/><path class="cls-3" d="M670.41,302.5l.56.67Z"/><path class="cls-3" d="M671.12,303.35c.13.17.27.33.4.49C671.39,303.68,671.25,303.52,671.12,303.35Z"/><path class="cls-3" d="M669.84,301.8l.51.62Z"/><path class="cls-3" d="M669.23,301.07l.45.54Z"/><path class="cls-3" d="M335.47,1029.28l.42-.23Z"/><path class="cls-3" d="M336.35,1028.78l.18-.1Z"/><path class="cls-3" d="M335,1029.54l.3-.16Z"/><path class="cls-3" d="M337.05,1028.38l0,0Z"/><path class="cls-3" d="M333.8,1030.06a2.38,2.38,0,0,0,.26-.08A2.38,2.38,0,0,1,333.8,1030.06Z"/><path class="cls-3" d="M330.94,1031.18l.89-.38Z"/><path class="cls-3" d="M457.08,1180.9l.36-4.24,3.53-4.59v-3.53s2.47-9.89,2.47-11.66V1137.1l11.31-17.66s-38.16-7.78-39.57-8.13-10.95-12-10.95-12l1.59-2.57c-4.23,0-8.48-.13-11.48-.26-8.48-.35-8.48-3.53-11.66-4.59s-12-8.48-12-8.48l-.7-10.24-10.25,6.36-6-1.41-4.6-15.19-21.19-6.72L344,1045.61l-8.47-1.42-4.66-13c-4,1.72-10.22,4.7-11.42,4.7-1.59,0-9.53,1.06-9.53,1.06l-5.3,28.62-36.56,21.19L266,1091l-6.36,3.18L231.53,1091l-3.7-9.54-2.65-4.24-9-1.06-6.36,2.65,5.83,18s8,21.72.53,21.72-35,1.59-35,1.59l-8.48-13.77-22.25.53H138.81a26.13,26.13,0,0,1-5.3,4.76,32.63,32.63,0,0,0-6.36,6.36l12.19,6.36-6.89,4.77,40.27,22.78,18,17.49-1.58,18,23.31,24.37,4.77,30.2-6.36,24.38-26.49,57.22,4.24,6.89,6.35.53,1.06,6.36,42.39,18.54h14.84l3.71-2.12,8.48.53,21.72,9.54s-2.12,5.3,1.06,6.36,10.07,3.18,10.07,3.18l11.66-2.65,6.35,6.36,15.1-3c-2-2.14-4.5-5-4.5-6,0-1.59,2.65-10.6,2.65-10.6l-2.65-5.3,9-14.3s3.18,2.65,6.36,1.06,15.36-11.66,15.36-11.66,12.72,6.36,14.31,6.89,4.24,3.71,4.24,3.71l10.07-6.89,4.77,2.12-1.59,3.18-1.59,2.12,3.71,1.06s3.17,2.12,3.7,3.71,6.36,6.36,6.36,6.36l14.31.53,13.78-1.59,2.65-5.83,9.53-8.48s3.18,2.12,5.3-.53,5.3-6.89,5.3-6.89a59.28,59.28,0,0,1,9.6-2.54l2.94-10.17v-5.37l-16.3.2-8.14-7.55,2.78-6.16-.2-9.34L434,1273.94l-.2-3.18,10.73-1.19,3.78-6-8.35-16.1,4-7.15,11.52,1.19-11-1.14-1.15-1.22-2.12-11-2.83-9.54-14.84,3.18-1.76,8.83-7.07-.36,5.66-15.18,14.48-17,12-15.9-1.77-3.88,1.42-2.12Z"/><path class="cls-3" d="M334.55,1029.76l.25-.13Z"/><path class="cls-3" d="M332,1030.71c.49-.2.93-.37,1.27-.49C333,1030.34,332.53,1030.51,332,1030.71Z"/><path class="cls-3" d="M334.17,1029.93l.23-.1Z"/></g><g id="Grey"><path class="cls-4" d="M716.37,1530.26l-13.25,33.91,9,11.13-4.77,18.55H687.22l-8.48-11.13H667.62l-12.19-6.36-20.13-11.13-9.54-.53s-5.3-1.06-5.3-3.71-1.06-10.06-1.06-10.06v-9h8c3.18,1.59,4.24,3.71,5.83,2.12s4.76-4.24,4.76-4.24l3.71-4.24,7.42,2.65,6.89,6.36h14.31l11.12-2.65,13.78-8,5.83,2.12,5.83-2.12Z"/><path class="cls-4" d="M510.78,1415.81l-12.72-2.65s-1.59-3.71-1.59-5.3a39.59,39.59,0,0,0-1.06-5.83l1.06-4.77-3.71-3.18-1.06-4.23.53-17.49s5.83-4.24,7.42-5.83,7.42-4.24,7.42-4.24l4.77,1.59,1.59-10.07,5.82,1.59v17s1.06,8,1.06,10.07-2.65,21.72-2.65,21.72Z"/><path class="cls-4" d="M481.1,1436.47l-1.59,11.13,11.13,18s-1.59,4.24-.53,5.83,3.18,7.41,3.18,7.41-6.89,10.07-5.83,13.78,3.18,18.55,3.18,18.55,4.77,1.06,7.42,1.59,6.89,1.58,6.89,1.58l1.06-9.53h11.12s1.06,2.65,2.65,0,6.36-23.32,6.89-25.44,3.71-15.89,2.65-17.48-3.18-8-3.18-8l1.06-5.83-5.3-13.25-9.53-11.12-23.32,16.42Z"/><path class="cls-4" d="M116,1042.25l2.65,3.71,4.24,1.06,2.65,4.77,2.12.53,3.71-6.89s3.71-5.83,6.89-5.83,4.24-1.06,6.89-1.06,19.07,8.48,19.07,8.48l7.95-2.65.53-9.54h15.37c1.59,0,17.48,4.24,17.48,4.24l8-1.59s2.12-1.59,7.42-1.59,22.78,1.06,22.78,1.06l14.84-1.59s5.83,1.59,8.48,2.12,16.42,0,18-1.06,17-4.24,17-8,.53-11.12.53-11.12l-10.07-2.65-11.66-2.12v-2.65l9-1.06,1.06-4.24-1.59-4.24,7.95-1.59,7.42-5.3,5.83-4.77,3.7-17.48-6.35-11.66s-4.24-4.77-6.36-4.77-11.13-.53-11.13-.53l-12.19,4.77-1.59-6.89,4.77-9a4.31,4.31,0,0,0,0-5.3c-2.12-2.65-5.3-5.83-5.83-8S266,923,266,923s.53-3.71,2.12-3.71,3.7-.53,5.29.53,6.36,4.77,6.36,3.18v-6.36L276,910.31l-2.65-8.47-9.53-14.31-6.36-1.59-3.71-9.54-7.42-33.91-17.48-19.07L220.94,825l-4.77,1.58L209.28,825s-4.77-4.24-3.18-4.24a68.86,68.86,0,0,0,8-1.59l12.19-3.71,4.77-2.65L230,808.58l-3.18-1.06,10.59-6.36s10.07-22.78,12.19-24.37,6.36-6.36,6.36-7.95-2.12-6.36-2.12-6.36l-15.9-5.3L222,754s-5.83,4.24-9.54,5.3-11.13,1.59-11.13,1.59-2.12-.53,0-2.12a31.32,31.32,0,0,1,4.24-2.65l4.77-4.24,1.06-2.12s-2.65,0-2.65-1.59,1.06-3.18,3.18-4.76,6.89-3.18,6.89-3.18l9-9,4.23-9L230.48,719l-2.12-.53a13.6,13.6,0,0,1-5.83,2.12c-3.71.53-15.9.53-15.9.53L200.8,719l-3.71-4.24-4.24,1.06-1.06,12.72-5.82.53s-1.59-1.59-2.12,0-1.59,4.24-1.59,4.24l1.59,6.89s1.59,2.65,0,2.65-12.19.53-12.19.53l-1.06,10.06h-4.24l1.59,2.65,3.18,4.77v6.36s.53,2.12-1.59,2.12-2.65-1.06-4.24-2.12-4.24-4.77-4.24-4.77l-3.18-3.18v-9.54h-4.24v4.77h-5.29v4.24l5.29,4.24,3.18,3.18,1.06,4.24,4.24,2.12,5.3,3.18-4.24,7.42h-6.36a2,2,0,0,0,0,2.64c1.06,1.59,5.3,6.89,5.3,6.89H168l.53,3.71-2.12,8.48-12.19,31.26,6.89.53,6.36-20.13s0,2.12,4.24,2.12,5.83-1.06,5.83-1.06c1.06,3.71-.53,10.06-.53,10.06l-1.59,5.3,3.18,3.71-17,25.44,3.18,6.35,3.18-3.7,5.83,4.76s2.12,3.71,3.71,1.59-.53-6.35,2.12-6.35,9,2.11,9,2.11a6.47,6.47,0,0,0,4.76,1.06c2.65-.53,9-5.82,9-5.82l6.89,2.12-1.59,5.29-11.13,8,6.36,23.32,13.25-6.89-5.3,10.6-1.59,2.64v10.6l-5.83.53-1.06,8.48-1.06,5.83-6.89-3.18s.53-.53-3.17-.53-9,.53-11.13,0S168.48,922,168.48,922l-3.18,2.65,4.24,6.36s2.65,5.83,0,5.83-4.77-1.06-6.36,1.06-3.71,5.3-3.71,5.3l5.3.53h7.42l1.59,2.12v5.29l-1.59,13.78L138.81,979.2V984a11.77,11.77,0,0,0,2.12,2.65l1.59,1.58,10.06.53,11.13-3.7a8.4,8.4,0,0,1-.53,4.76l-1.06,2.12,6.36,4.24a18.82,18.82,0,0,1,5.3.53l1.59,4.24,6.36,4.24s3.71,1.06,5.83,0,6.88-4.24,6.88-4.24l7.95-5.3.53,2.65-4.24,4.24-4.77,8.48s2.65,2.12-7.41,0-15.37-3.18-17.49-3.18h-7.42l-1.06,4.77s2.65,5.83,0,5.83H148.88s-2.65,10.06-4.77,10.59.53,1.59-5.83,3.71-11.66,9-11.66,9Z"/><path class="cls-4" d="M522.79,855.91,514.66,858l-1.76,2.12s-.71,5.65.35,7.07a83.61,83.61,0,0,0,6.36,6l11.65,5.3,2.48-7.77s4.24-.71,0-7.42-5.3-8.12-5.3-8.12Z"/><path class="cls-4" d="M551.75,838.61l-4.24,1.76v4.24l-4.24,3.53-7.77,1.06s.71,4.24,1.77,4.59,5.65,2.48,5.65,2.48l.71,9.18,7.06,3.53,6,4.95,5.3,3.53s4.59,1.41,4.59-.35-2.12-7.42-2.12-7.42l5.65-3.18s2.47-.35,2.47-2.47a8.45,8.45,0,0,0-1.06-3.89L568.36,857l1-5.29L573,848.5l-1.06-12.72s-4.59-.35-5.65-1.06-7.07-2.12-7.07-.71-.71,9.89-.71,11.31,1.77,5.3,0,5.3-4.23,0-4.23-1.77.35,1.41,0-1.77A44.09,44.09,0,0,0,551.75,838.61Z"/><path class="cls-4" d="M668.68,774l-3.54,3.53L662,800.81l-3.54,18.37s3.18,1.06,3.89-.36,3.88-11.65,3.88-11.65,4.24-16.61,4.24-18S668.68,774,668.68,774Z"/><path class="cls-4" d="M698.35,748.53l-4.59,6.71s-4.59,4.59-4.59,5.65,1.76,9.19,1.76,9.19l2.12,9.18,6.36,4.24s6.36-10.6,6.36-12-.36-6.36-.71-8.83-.35-10.25-.35-11.31,2.82-3.18,2.82-3.18l-7.77-4.59Z"/><path class="cls-4" d="M898.64,507.61s-6.36-20.13-9.54-20.13-14.83-12.72-14.83-12.72L858.37,462V450.39s-8.48-17-18-24.38l-9.53-7.41V399.52l-30.74-38.15,3.18-30.73s-20.13-19.08-27.55-22.26-6.36-11.65-6.36-11.65L770.41,284l3.18-8.48L769.35,266,781,255.4V243.74H768.29s-2.12,7.42-5.3,4.24-14.83-13.78-14.83-13.78l18-7.42s-1.06-7.42-6.36-8.47-18-7.42-25.43-8.48-2.12-7.42-10.6-2.12l-8.47,5.3s4.76,4.77,4.76,6.35-3.7,12.72-3.7,12.72l-3.18,1.59-3.71-4.77-2.12,4.24s-1.06,6.36-1.59,9,.53,5.83-1.59,5.83-5.3,5.3-6.36,0a44.35,44.35,0,0,1-1.06-7.42V226.78l.53-5.3-4.24-.53L689.87,222l-4.77,4.77v10.6L683,243.74s-7.41.53-9-.53-3.18-3.18-5.3-3.18-9,2.65-9,2.65-2.65,2.65-1.06,3.71a15.6,15.6,0,0,0,4.77,1.59l4.24,1.59,5.3,1.59s-.53,3.18.53,5.3,1.06,6.35,1.06,6.35-1.59,2.12-3.18,2.12h-4.77a46.61,46.61,0,0,1-7.42-1.06h-4.77l-1.06,2.65v4.77l6.36,5.3s-5.83-1.59-7.42-.53-6.36,2.12-6.36,4.24-1.59,6.89-1.59,6.89h-3.71l-1.59-9c-3.7.53-7.41,0-7.41,1.59s1.59,4.24,0,4.24-3.71,1.59-5.83-.53l-3.71-3.71-.53-2.12s-3.18,1.06-3.18,3.18,2.12,5.83,2.12,5.83,5.3,4.24,3.71,4.24-2.65.53-5.3.53-8.48-1.06-8.48.53,3.18,6.36,3.18,6.36l7.95,5.82a17.38,17.38,0,0,1-7.42,2.12c-3.71,0-12.19-1.06-12.19-1.06s-3.71-1.59-3.71.53-1.59,9.54-1.59,9.54-.53,2.65,1.06,2.65,6.36,1.59,6.36,1.59.53,5.83.53,7.42a6.72,6.72,0,0,1-1.06,3.18H594a48.92,48.92,0,0,1-4.24-4.77c-1.06-1.59-5.3-2.12-7.42-2.12H572.24s3.71,4.24,5.83,4.24h5.3l2.65,1.59-7.42,5.83H561.11l7.42,6.35s1.06-3.7,2.12,1.06,4.77,4.77,4.77,4.77l3.71-2.12,8-4.24,1.59-3.17,11.12-.53,9,2.64-2.65,4.77-6.89,3.18-9.53,2.12s2.65,11.66.53,12.19S578.07,364,577,365.61s-2.65,4.77-2.65,4.77l2.12,2.65,7.42-.53-2.12,2.65v4.77l-11.13,5.82s-1.06,5.83,0,7.42,4.24,1.59,4.24,1.59c1.59,2.65,6.89,5.3,1.59,6.36a60.55,60.55,0,0,0-11.13,3.71l-9,8.48s-6.88,7.94-6.88,9.53-.53,3.71,1.06,5.83a42,42,0,0,1,3.18,5.3s5.82-1.06-3.18,1.59-9,6.89-9,6.89l4.77,5.83v6.89l-3.71,6.35v5.83l2.65,4.24s10.06,1.06,1.06,4.24-15.37,4.77-15.37,4.77l-6.36,4.77v3.71l3.18,2.65-1.59,8.48-2.65,7.41-5.83.53-4.23-1.06-5.83,9.54-2.12,9.54s2.65,3.71-1.59,4.77L499.65,532s-6.89-1.59-.53,2.65,9,5.83,9,5.83l9.53-1.06s.53,3.7-2.12,4.76-9.53,3.18-9.53,3.18h-3.18l-4.77-4.24-.53-3.17-7.95-.53-.53,5.82-2.65,4.24h-2.12l-3.71-.53-5.3,3.18s-.52.53-.52,2.65-1.06,10.07-1.06,10.07c-3.71.53-4.77,0-6.36,0s-3.71-.53-6.36-.53h-4.24l-6.89,1.06-2.12,3.18,1.59,5.3,5.3,2.65,1.06,4.24-.53,3.17h-6.89l-4.24.53h-5.3l-2.12,3.18.53,7.42-2.65,3.18h-5.29l-11.13-1.06-4.77-1.06-2.12,1.59v4.77l3.71,2.65,5.83,4.24-8.48,1.59-1.06,6.36v2.12l2.12,3.7,1.06,3.71-9,1.06,1.06,6.36,10.07,1.59,4.77,6.36H408.51v5.3c0,2.65-2.12,5.83-2.12,5.83l-.53,4.24,3.18,1.06,5.83-1.59,1.06,4.24-3.71,2.64-1.06,4.77,1.06,3.18a34,34,0,0,1,5.83,2.65c2.65,1.59-2.12-1.59,2.65,1.59l4.77,3.18s5.3-6.36,5.83-4.77a17,17,0,0,1,.53,4.24l-3.18,1.59L424.94,683l-2.65,3.18-.53,2.12.53,2.12v3.18l-2.12,2.12-8.48,3.18v9.53l2.12,2.12,6.89-.53,9.54-1.59v13.78l-1.06,4.24-11.13-2.65-5.3-2.65.53,8.48,3.18,5.3,5.83,4.24,6.36,5.29,4.24,4.24,1.58,6.36s-3.7,1.59,0,2.12,4.77,1.06,8.48,1.06a38.68,38.68,0,0,1,7.95,1.06l6.36.53s2.65.53,7.42-1.06,9.54-3.71,9.54-3.71l9-9s6.36-18.54,9.54-19.6,5.83-3.18,11.13-4.24,14.3-3.71,14.3-3.71V695.19l2.65-1.06s4.77,3.18,5.3,6.36,1.06,10.06,1.06,10.06l2.65,3.71c2.12,2.12,3.71,1.06,4.24,3.18l5.3,1.59,4.24,3.71,6.89-9-3.18-8-1.06-12.18s3.18-6.89,3.71-8.48,4.24-3.71,4.24-3.71,6.88-21.19,5.82-22.78-5.29-9.54-5.29-9.54l-3.71-9h6.35l3.18-13.78v-7.41l-13.77-9L550,603l-8.48-44,2.65-14.31L545.75,532l3.71-6.89,7.94-3.71h21.73s1.06-11.13.53-14.31-5.3-4.24-5.3-4.24l-4.77-9,11.66-24.38-6.89-28.61,10.6-4.24s4.24-1.59,5.83-2.12,0-4.24,0-4.24l-3.71-3.71.53-6.36,9-8.47s3.71-7.42,3.71-9a23.77,23.77,0,0,0-.53-5.83c-.53-2.12-4.23-13.25-4.23-13.25L603.5,363l10.07-3.18s6.89,0,8.48-.53,0-3.18,0-3.18v-10.6l2.65-7.94c1.06-3.18,7.95,0,7.95,0l13.77,2.11,3.18-2.11-1.06-10.6-4.24-7.42L642.18,311l12.72-1.59,5.3,4.77,2.65,6.36,27.55,10.6,11.66,4.77,3.71,24.37,3.71,1.06,1.59,13.25s1.59,4.24,3.18,5.82S720.6,391,720.6,391v18l10.87,15.28a3.43,3.43,0,0,0,.79-.45l2.12-1.59,8.48-2.64s3.18.52,3.71,2.11-.53,2.65,1.59,3.18a24,24,0,0,1,4.24,1.59l3.71,1.59,2.11,6.89v8.48a16.2,16.2,0,0,1,0,5.3c-.53,2.12-4.76,4.77-4.76,4.77l-2.12,3.71,3.18,9.53-3.18,10.07-6.89,14.84s-6.89,13.77-9,14.83-10.07,3.71-11.13,5.3a7.77,7.77,0,0,0-1.06,5.83c.53,1.59,3.18,4.24,3.18,4.24v3.71l-3.18,5.3L717.43,532l-6.36,5.3v10.06l9.53,21.2L727,585l6.36,3.18-4.24,21.2,2.65,13.24,6.89,10.6h10.6l14.3,2.65a37.84,37.84,0,0,0-3.71,7.95c-1.06,3.71-3.7,3.18-1.06,3.71a69.19,69.19,0,0,0,9,.53l8-1.06,1.59,3.71c3.18-.53,8-1.06,8-1.06l6.89-3.18,3.71-5.83,5.29-3.71,10.07-2.12,6.36-8.48,3.71-5.29s1.06,0,8.48-2.12,15.89-9.54,15.89-9.54,6.36.53,10.07-1.59c1.73-1,5.3-4.16,8.83-7.27l0,0Z"/><path class="cls-4" d="M145.7,863.69v-6.36L142,847.26l-2.65-5.83-8.48-.53-13.78,3.18,2.12-6.36-8.48,1.59L107,842l-1.59-5.83-11.13.53-6.89,9.54-5.83,3.18-.53,3.71,8,5.3s5.3,1.59.53,3.18-11.13,3.18-11.13,3.18l-.53,3.7-7.42,2.65L67.28,869l-6.89,3.18-2.12-8.47a37.61,37.61,0,0,0-7.42-1.06h-9l2.65,4.23s-4.77-.52-5.3,1.59-1.06,3.71-1.06,3.71l1.59,2.65L44,875.87s3.71,1.06,4.24,3.18a45,45,0,0,0,1.59,4.77s-6.36,2.12-8.48,3.71-5.3,4.24-5.3,4.24l2.12,4.77,1.06,4.24,4.24-1.59h4.24L49.79,905l10.6,1.06.53,5.29a2.77,2.77,0,0,0-3.71,0,13.38,13.38,0,0,1-4.77,2.12L49.26,913l-4.77,12.19-4.24,1.06-3.71,1.59s3.18,2.12,5.3,2.12,13.25-.53,13.25-.53l5.3,1.59s0,3.71-4.77,3.71H44.49l-4.77-1.59L35,935.75l-6.35,8s-12.19-9.54-11.66-7.42a36.16,36.16,0,0,1,.53,6.36s5.3,0,6.36,1.59,3.18,3.7,1.59,4.23,4.76.53-1.59.53-7.95,1.06-7.95,1.06-2.12-.53,0,2.12,3.71,4.24,3.71,4.24l2.65,2.12,3.18,3.18-3.71,2.12,4.77,1.59h4.23l-2.64,4.24,2.11,1.59H57.74L62,968.07s5.3.53,6.89,0S86.35,958,86.35,958s21.73,3.18,23.85,1.59,20.66-23.31,20.66-24.9-.53-23.32-.53-25.44.53-15.89.53-15.89l.76-4.94h0l.3-1.95h5.3l4.24-3.71,5.3-3.18,5.29-2.12,2.12-7.42Z"/><path class="cls-4" d="M796.55,1440.54l-3.88-3.54-14.84-9.18s-8.48-6-9.89-6.36-21.9-6.36-21.9-6.36l-20.84-7.77-8.48-4.94-3.18-3.89,4.59-4.59s2.12-1.77,2.12-3.18a32.15,32.15,0,0,0-1.41-5.65l-12.37-1.42h-11l-4.24.71a19.75,19.75,0,0,1-3.53.71c-1.06,0-10.6-4.24-10.6-4.24L657.73,1366l-13.43-30-9.53-12.72-37.1-21.2s-2.11-15.89-1.76-17.66-.35-7.42,1.41-7.42h3.18l.35-3.53-.35-3.53-7.06-11.66L597,1253l2.82-1.76.71,3.88H603s0-1.06,3.18-3.18,8.13-5.3,8.13-5.3l4.59-4.59v-2.12h4.94l3.89.71,1.41-2.12h6l1.41,4.24s1.06.35,0,1.76-5.3,4.24-5.3,4.24-.32.37-.73.92l22.28-3.39,4.59-3.89,5.66-2.47,1.05,3.18,5.66,1.41h11.65l2.83-3.17,1.06-10.6,7.06-2.83,1.42-16.25,8.83-3.18,3.18-5.65h3.88V1200l-8.47-9.9H699l1.52-5.65,7.06-2.82v-3.89l-3.88-9.54,2.82-4.24,3.18-4.23-4.59-2.48,2.47-3.53h11l-2.11-14.48,1.23,0-5.94-11.35.22-12.65,0-1.63,4.43-4.93,19.22-7.88,3.69-16.51,8.87-6.4L755,1070l.07,0-2.8-3.11-1.43-7.16-4.78-.48-6.21-1-5.25,1.43c-5.25,1.43,0,0-6.68-.48s-2.87-3.82-2.87-3.82l-1-4.3-5.26-1.43-3.82,1.43-4.3-5.25-5.73-1.43-5.73.47,4.78,5.73a12.74,12.74,0,0,1,1,5.26c0,3.34-4.77,1.91-6.68,2.39s-4.3-4.3-4.3-4.3-7.64-6.21-9.55-8.12,3.82-4.3,3.82-4.3v-2.39l-27.22-1.91-3.34-7.64-5.74.48-.47,3.34-4.3-.47,3.34-21-2.86-3.34-6.69-7.16s-.48-9.08-.95-10.51-1.91-9.07-1.91-9.07l-2.39-14.33-6.69-3.82L621,958.47v-4.78l6.21-6.68.48-6.21-5.73-9.08-.66-7.07L616.75,923s-4.77-3.18-5.3-4.77,2.12-2.65-4.24-6.36-9-4.24-9-4.24L584.43,905l-4.24-6.36v-2.12l-3.71,2.65-6.36,8.47s-9.54,0-10.6,1.59-3.18,5.3-3.18,5.3l-5.29,5.83-7.95-.53s-6.36-2.12-6.36-3.71,1.59-5.83,1.59-5.83l1.06-6.35v-4.24a29.83,29.83,0,0,1-5.3,1.06,41.1,41.1,0,0,0-4.77.53H517.66a2.08,2.08,0,0,1-2.12-2.12c0-2.12-.53-9-.53-9L509.56,887l-.9-.53a44.87,44.87,0,0,1-.53-6.89l-5.3-5.3,2.12-3.71,2.12-2.12s-.53.53,0-5.29,0-7.42,0-7.42,9-9.54,10.06-12.72a52.87,52.87,0,0,0,2.12-10.6c0-1.59,3.18-3.18,4.77-3.18s6.36,6.36,6.36,3.18,1.06-10.59,1.06-10.59l.53-3.18-5.83-3.18-4.77-3.71-2.65-6.89,1.59-4.24,3.71-4.77L523,790,524,780l2.65-6.89.53-3.18h-5.83s2.12,3.71,0,4.77,4.24.53-2.12,1.06-6.88,1.06-8.47,1.59a13.19,13.19,0,0,0-3.71,2.65L505,784.73l-8.48,11.66a33.61,33.61,0,0,1-9,1.59H480l-1.59,2.12c-1.59,2.12-5.29,12.72-5.29,12.72v10.6l-2.65,15.36v9s-1.06,5.83-1.06,7.42,8.47,6.36,8.47,6.36a15.83,15.83,0,0,1,5.3,4.77L482.76,882l-.07,2.38,7.95,13.25,2.12,3.18-5.83,4.77,4.24,2.64,2.12,3.18L492.23,914l-2.12,1.06,2.12,2.12s-.53-.53,4.24,1.59l4.77,2.12,5.3,3.18,4.77,9.54h-8.48l-2.65-3.18-6.36-2.65s3.71-1.06-2.12-1.06-5.3-2.65-5.83,0l-.53,2.65-3.18,8s-6.36-5.3-6.36,0-5.29,5.3-5.29,5.3l-1.06-9L461.5,932,453,933.63s-3.18,2.65-3.18,4.24-4.77.53,0,4.24,6.36,4.76,6.36,4.76l-7,3.73h0l-2,1-5.83-7.94-11.65,1.06-8.48.53h-2.65l-6.89,4.76-6.89,4.77v5.3l3.71,3.18,4.24.53,1.06,2.12-1.06,10.6-.53,2.65-13.78,7.42-2.65-8,2.12-6.89,2.65-1.06a5.72,5.72,0,0,1-2.12-4.24,16.43,16.43,0,0,0-1.06-5.3h-5.82l-2.65,9-1.59,11.13-2.12,6.88s-3.71,9-6.36,9.54S372,998.8,372,998.8l2.12,2.65,6.89,4.77a2.36,2.36,0,0,1,1.59,2.12,4.44,4.44,0,0,1-3.18,4.24c-2.12.53-9.54,3.71-9.54,3.71l-5.83-2.65-3.18-3.18s-2.65-2.65-4.24-.53a6.87,6.87,0,0,0-1.59,3.71l3.71,1.59,4.24,1.59,5.3,1.59h3.18l6.89,1.59v2.12c0,1.59,1.59,2.65,0,3.18l-1.59.53-3.18-1.06s0-3.18-3.71-3.18H355.52s.51,1-3,0l-.15,0c-3.71-1.06-16.43,7.94-18.55,8.47a26.33,26.33,0,0,0-2.89,1.13l4.66,13,8.47,1.42,3.89,10.59,21.19,6.72,4.6,15.19,6,1.41,10.25-6.36.7,10.24s8.83,7.42,12,8.48,3.18,4.24,11.66,4.59c3,.13,7.25.21,11.48.26l-1.59,2.57s9.54,11.66,10.95,12,39.57,8.13,39.57,8.13l-11.31,17.66v19.78c0,1.77-2.47,11.66-2.47,11.66v3.53l-3.53,4.59-.36,4.24-10.59-4.59-1.42,2.12,1.77,3.88-12,15.9-14.48,17-5.66,15.18,7.07.36,1.76-8.83,14.84-3.18,2.83,9.54,2.12,11,1.15,1.22-.49-.05-4,7.15,8.35,16.1-3.78,6-10.73,1.19.2,3.18,9.14,11.92.2,9.34-2.78,6.16,8.14,7.55,16.3-.2v5.37l-2.94,10.17a12.36,12.36,0,0,1,1.53-.11c3.71,0,9-2.12,9-2.12l8.47-5.83-.53-7.41,6.36-2.12s4.77-8.48,6.89-8.48,2.65-.53,6.36,0a49.94,49.94,0,0,1,9,2.65l10.59,8,8.48,2.12,5.3,1,5.83,8.48v8.48l6.36,9,3.71,10.6,2.65,10.59s9.53,6.89,10.06,8.48-.53,9,2.65,9,8.48.53,8.48.53l42.39,32.32s7.95,6.89,12.19,6.89,13.24-3.71,18.54-1.06,14.31,11.66,14.31,11.66l6.89,4.77s4.24-1.06,3.18,5.29l-1.06,6.36s4.77,1.06,6.89,0,6.88-5.83,6.88-5.83l6.89,5.3L692,1446l-1.59,5.3.18,4.06,10.24,6.36,7.42-1.76,6.36,3.17,5.3,8.84,9.54,12.71,4.94,18.37v8.48l-3.53.7-4.24,2.48-.35,11-5.66,3.88,1.06,8.48,3.18,3.53,7.42.71,2.12-8.83,9.19-9.54s6-1.41,5.29-5.3a114.19,114.19,0,0,0-3.18-11.3l3.18-6,5.3-3.17,5.3-.71h3.18l1.41-.71-1.06-4.24-1.06-4.24-.35-4.59v-2.82l-9.18-6.36-9.19-3.18a16.46,16.46,0,0,1-1.41-6.71,65.07,65.07,0,0,1,1.06-9.54l6-15.54,6.72-3.54h8.12l-4.24,2.12v2.12h1.41l5,.36,8.48.35,6.36.71a6,6,0,0,1,3.18,3.88c.7,2.83,0,3.53.7,5s0,3.53,1.06,3.88,4.95,4.24,6.71,5,5,2.47,5,2.47,2.82,3.18,2.82,0,.36-11.66.36-11.66Z"/><path class="cls-4" d="M331.41,1374.11l-15.1,3-6.35-6.36-11.66,2.65s-6.89-2.12-10.07-3.18-1.06-6.36-1.06-6.36l-21.72-9.54-8.48-.53-3.71,2.12H238.42L196,1337.39,195,1331l-6.35-.53-4.24-6.89-20.14-.53s-7.42-5.3-11.66-5.3-10.59.53-12.71.53-8-3.18-8-3.18-9-4.76-18.55-4.76a138.87,138.87,0,0,1-19.6-1.06c-3.18-.53-23.32-12.19-23.32-12.19s-21.72-3.71-23.84-3.71-12.72,1.06-15.9,0-14.3-8-14.3-8-2.65-3.71-4.77-3.18-22.78,13.78-22.78,13.78L-36.58,1303l6.89,23.31,1.06,8s-5.83,4.77-5.83,6.36v10.07l-.18,2.5-3,40.41-28.61,50.34H-71s-7.42,6.89-7.42,9.54-1.06,12.72-1.06,12.72l-.53,3.71,21.73-8.48-8.48,10.6-8.48,5.82,2.12,2.65s1.59,2.65,4.24,1.59,14.31-3.18,14.31-3.18l-9.54,10.6s.53,17,.53,19.08-12.72,23.84-12.72,23.84l.53,7.42h3.71l5.3-4.24,8,.53,6.89,3.18,10.06,5.83,8.48-3.71,8.48-1.06,10.6-1.06,14.3,9,4.77,10.06S0,1571.06,3.69,1573.71c.79.57,2.29,1.84,4.16,3.48l2,1.83c-.72-.64-1.4-1.26-2-1.82,6.84,6,18.63,17.17,18.63,17.17L42.9,1580.6l15.37,1.59,8.48-8.48,32.32,3.18s14.83,3.71,16.42,3.71,10.07,1.06,11.66,0,4.77-2.65,4.77-2.65,5.83,3.71,7.42,3.71,22.78-26.5,22.78-26.5h27l4.76-5.29s2.65-23.32,5.3-23.85,27-10.07,27-10.07-8-24.9-9.54-26.49-4.24-9.54-4.24-9.54l39.74-49.27,55.11-20.14s13.24-9,14.83-10.6,9-9,9.54-12.71,2.12-10.6,2.12-10.6-1.09-1.09-2.39-2.5Z"/><path class="cls-4" d="M21.41,1589.62l-2.28-2.12Z"/></g></g></svg>