<svg id="Tablet" xmlns="http://www.w3.org/2000/svg" viewBox="0 0 2048 2732"><defs><style>.cls-1{fill:#b3b8ff;}.cls-15,.cls-2,.cls-8{fill:none;}.cls-15,.cls-2{stroke:#ff9;stroke-miterlimit:10;}.cls-2{stroke-width:50px;}.cls-3{fill:#ff9;}.cls-4{fill:#b3daff;}.cls-5{fill:#333;}.cls-6{fill:#fa5;}.cls-7{fill:#d30;}.cls-9{fill:#ffe855;}.cls-10{fill:#3ea;}.cls-11{fill:#3bf;}.cls-12{fill:#ffa6a6;}.cls-13{fill:#ffcaa6;}.cls-14{fill:#a6ffad;}.cls-15{stroke-width:30px;}</style></defs><title>background-home-tablet</title><rect id="Purple_Rectangle" data-name="Purple Rectangle" class="cls-1" x="136.93" y="306.37" width="330.56" height="330.56" transform="translate(158.85 -69.86) rotate(17.82)"/><g id="Yellow_Zig_Zag" data-name="Yellow Zig Zag"><path class="cls-2" d="M-129.77,706c58.11-20.1,84.26,55.51,142.36,35.41s32-95.71,90.06-115.81S186.91,681.09,245,661,277,565.28,335.07,545.18s84.26,55.5,142.36,35.4,32-95.7,90.06-115.8"/></g><polygon id="Triangle" class="cls-3" points="1113.51 1480.93 1705.24 842.6 1756.8 1567.31 1113.51 1480.93"/><circle id="Blue_Circle" data-name="Blue Circle" class="cls-4" cx="1474.63" cy="842.6" r="282.17"/><g id="Screen"><rect id="Background" class="cls-5" x="524" y="802.78" width="1000" height="640" rx="25.01"/><g id="welcome"><path class="cls-6" d="M907.4,1147.91h.37l9.17-30.59,1.26-5.88,1.19,5.6,9.24,30.87h7.14l14.91-49.63h-8.19l-10.08,37.45L921,1098.28h-5.53l-7,22.93A145,145,0,0,0,907.4,1147.91Z"/><path class="cls-7" d="M908.46,1121.21l-4.54,14.87-10.22-37.8h-8.05l14.91,49.63h6.84A145,145,0,0,1,908.46,1121.21Z"/><path class="cls-8" d="M976.44,1122.25a8.12,8.12,0,0,0-6.09-2.48,7.5,7.5,0,0,0-3.05.63,9.65,9.65,0,0,0-2.66,1.75,10.47,10.47,0,0,0-2.1,2.66,12.34,12.34,0,0,0-1.29,3.36H979a11,11,0,0,0-.77-3.22A8.49,8.49,0,0,0,976.44,1122.25Z"/><path class="cls-9" d="M985.05,1124.91a18,18,0,0,0-3.33-6.4,12.93,12.93,0,0,0-5-3.71,16.44,16.44,0,0,0-6.33-1.19,14.77,14.77,0,0,0-6.3,1.36,16.3,16.3,0,0,0-5.15,3.75,17.89,17.89,0,0,0-3.5,5.6,18.24,18.24,0,0,0-1.29,6.86,17.53,17.53,0,0,0,5.11,12.46,17.62,17.62,0,0,0,5.56,3.74,17.15,17.15,0,0,0,6.83,1.37,19.94,19.94,0,0,0,7.73-1.47,18.37,18.37,0,0,0,6-3.92l-4.2-4.2a12.55,12.55,0,0,1-3.89,2.59,12.4,12.4,0,0,1-4.93,1,11.18,11.18,0,0,1-3.75-.63,10.91,10.91,0,0,1-3.22-1.79,12,12,0,0,1-2.48-2.73,11.29,11.29,0,0,1-1.54-3.39h24.92A32,32,0,0,0,985.05,1124.91Zm-23.8,3.26a12.34,12.34,0,0,1,1.29-3.36,10.47,10.47,0,0,1,2.1-2.66,9.65,9.65,0,0,1,2.66-1.75,7.5,7.5,0,0,1,3.05-.63,8.21,8.21,0,0,1,7.84,5.18,11,11,0,0,1,.77,3.22Z"/><path class="cls-6" d="M1000,1096.81h-6.79V1102c2.26-.72,4.53-1.44,6.79-2.2Z"/><path class="cls-9" d="M993.17,1102v46H1000v-48.16C997.7,1100.51,995.43,1101.23,993.17,1102Z"/><path class="cls-9" d="M1023,1148.75a15.71,15.71,0,0,0,7.57-1.89c.57-3,1.24-6,2-9l-.6-.52a11.25,11.25,0,0,1-3.64,3.92,8.86,8.86,0,0,1-5,1.47,9.21,9.21,0,0,1-4-.91,10.53,10.53,0,0,1-3.29-2.49,12,12,0,0,1-2.2-3.67,12.79,12.79,0,0,1,0-9,11.46,11.46,0,0,1,2.2-3.64,10.32,10.32,0,0,1,3.29-2.42,9.67,9.67,0,0,1,8.58.28,10.11,10.11,0,0,1,3.54,3.19l4.75-3.71a16.79,16.79,0,0,0-5.73-5,16.38,16.38,0,0,0-14-.46,16.48,16.48,0,0,0-5.3,3.75,18.37,18.37,0,0,0-3.57,19.32,18.11,18.11,0,0,0,3.57,5.6,16.6,16.6,0,0,0,5.3,3.74A15.81,15.81,0,0,0,1023,1148.75Z"/><path class="cls-10" d="M1030.75,1146.75a16.58,16.58,0,0,0,5.81-5.35l-4-3.54c-.75,3-1.42,6-2,9Z"/><path class="cls-8" d="M1064.9,1139.32a12,12,0,0,0,2.11-3.68,13.51,13.51,0,0,0,0-9,11.61,11.61,0,0,0-2.11-3.65,10.11,10.11,0,0,0-3.16-2.46,8.64,8.64,0,0,0-7.72,0,10.5,10.5,0,0,0-3.2,2.46,11.31,11.31,0,0,0-2.14,3.65,13.34,13.34,0,0,0,0,9,11.67,11.67,0,0,0,2.14,3.68,10.18,10.18,0,0,0,3.2,2.5,8.64,8.64,0,0,0,7.72,0A9.81,9.81,0,0,0,1064.9,1139.32Z"/><path class="cls-10" d="M1064.42,1147.38a16.75,16.75,0,0,0,5.36-3.74,18,18,0,0,0,3.6-5.6,18.17,18.17,0,0,0-3.6-19.32,16.62,16.62,0,0,0-5.36-3.75,16.33,16.33,0,0,0-13.05,0,16.78,16.78,0,0,0-5.32,3.75,18.24,18.24,0,0,0-3.61,19.32,18,18,0,0,0,3.61,5.6,16.91,16.91,0,0,0,5.32,3.74,16.22,16.22,0,0,0,13.05,0Zm-10.4-5.56a10.18,10.18,0,0,1-3.2-2.5,11.67,11.67,0,0,1-2.14-3.68,13.34,13.34,0,0,1,0-9,11.31,11.31,0,0,1,2.14-3.65,10.5,10.5,0,0,1,3.2-2.46,8.64,8.64,0,0,1,7.72,0,10.11,10.11,0,0,1,3.16,2.46,11.61,11.61,0,0,1,2.11,3.65,13.51,13.51,0,0,1,0,9,12,12,0,0,1-2.11,3.68,9.81,9.81,0,0,1-3.16,2.5,8.64,8.64,0,0,1-7.72,0Z"/><path class="cls-10" d="M1123.85,1147.91v-20.3a18.76,18.76,0,0,0-1.12-7.07,11.1,11.1,0,0,0-2.87-4.27,9.37,9.37,0,0,0-3.78-2.1,14.17,14.17,0,0,0-3.85-.56,9.23,9.23,0,0,0-5.14,1.57,10.64,10.64,0,0,0-3.61,3.75,8.54,8.54,0,0,0-2-2.63,11.06,11.06,0,0,0-2.48-1.61,12.22,12.22,0,0,0-2.52-.84,11.6,11.6,0,0,0-2.21-.24,8,8,0,0,0-4.27,1.08,13.16,13.16,0,0,0-3,2.56l-1.4-2.87h-5.39v33.53H1087v-21.49a8,8,0,0,1,1.86-5,5,5,0,0,1,3.67-1.61,6.56,6.56,0,0,1,4.73,1.71c1.19,1.15,1.78,3.16,1.78,6.06v20.37h6.37v-20.3q0-4.06,1.68-5.95a5.11,5.11,0,0,1,3.92-1.89,6.56,6.56,0,0,1,4.73,1.71c1.19,1.15,1.78,3.16,1.78,6.06v20.37Z"/><path class="cls-8" d="M1154.3,1125a8.3,8.3,0,0,0-4.37-4.52,8.59,8.59,0,0,0-3.47-.66,7.46,7.46,0,0,0-3,.63,9.5,9.5,0,0,0-2.66,1.75,10.47,10.47,0,0,0-2.1,2.66,12,12,0,0,0-1.3,3.36h17.71A10.68,10.68,0,0,0,1154.3,1125Z"/><path class="cls-10" d="M1133.4,1126.14c-.32-1.22-.68-2.4-1.08-3.56a18.45,18.45,0,0,0-.8,1.74,18,18,0,0,0-1.3,6.86,17.52,17.52,0,0,0,4.88,12.2A53.4,53.4,0,0,0,1133.4,1126.14Z"/><path class="cls-11" d="M1161.44,1143.36l-4.2-4.2a12.43,12.43,0,0,1-8.82,3.57,11.17,11.17,0,0,1-3.74-.63,10.79,10.79,0,0,1-3.22-1.79,12,12,0,0,1-2.49-2.73,11.54,11.54,0,0,1-1.54-3.39h24.92a31.66,31.66,0,0,0-1.19-9.28,17.85,17.85,0,0,0-3.32-6.4,13.07,13.07,0,0,0-5-3.71,16.45,16.45,0,0,0-6.34-1.19,14.77,14.77,0,0,0-6.3,1.36,16.26,16.26,0,0,0-5.14,3.75,17.68,17.68,0,0,0-2.7,3.86c.4,1.16.76,2.34,1.08,3.56a53.4,53.4,0,0,1,1.7,17.24c.08.08.15.18.23.26a17.66,17.66,0,0,0,5.57,3.74,17.13,17.13,0,0,0,6.82,1.37,20,20,0,0,0,7.74-1.47A18.33,18.33,0,0,0,1161.44,1143.36Zm-22.78-18.55a10.47,10.47,0,0,1,2.1-2.66,9.5,9.5,0,0,1,2.66-1.75,7.46,7.46,0,0,1,3-.63,8.59,8.59,0,0,1,3.47.66,8.3,8.3,0,0,1,4.37,4.52,10.68,10.68,0,0,1,.77,3.22h-17.71A12,12,0,0,1,1138.66,1124.81Z"/></g><g id="Controls"><circle id="Close" class="cls-12" cx="557.5" cy="835.28" r="7.5"/><circle id="Reduce" class="cls-13" cx="582.5" cy="835.28" r="7.5"/><circle id="Open" class="cls-14" cx="607.5" cy="835.28" r="7.5"/></g></g><circle id="Orange_Circle" data-name="Orange Circle" class="cls-13" cx="602.77" cy="1423.47" r="187.47"/><circle id="Blue_Circle-2" data-name="Blue Circle" class="cls-4" cx="1860.91" cy="231.38" r="129.72"/><line id="Yellow_Line" data-name="Yellow Line" class="cls-15" x1="1675.24" y1="92.74" x2="2103.77" y2="257.08"/></svg>