<svg xmlns="http://www.w3.org/2000/svg" viewBox="0 0 1125 2436"><defs><style>.cls-1{fill:#b3b8ff;}.cls-2,.cls-8{fill:none;}.cls-2{stroke:#ff9;stroke-miterlimit:10;stroke-width:50px;}.cls-3{fill:#ff9;}.cls-4{fill:#b3daff;}.cls-5{fill:#333;}.cls-6{fill:#fa5;}.cls-7{fill:#d30;}.cls-9{fill:#ffe855;}.cls-10{fill:#3ea;}.cls-11{fill:#3bf;}.cls-12{fill:#ffa6a6;}.cls-13{fill:#ffcaa6;}.cls-14{fill:#a6ffad;}</style></defs><title>background-home-mobile</title><g id="Mobile"><rect id="Purple_Rectangle" data-name="Purple Rectangle" class="cls-1" x="255.85" y="-77.49" width="330.56" height="330.56" transform="translate(47.08 -124.67) rotate(17.82)"/><g id="Yellow_Zig_Zag" data-name="Yellow Zig Zag"><path class="cls-2" d="M-37.79,283.18c58.1-20.1,84.25,55.5,142.36,35.4s32-95.7,90.05-115.8,84.26,55.5,142.37,35.4,31.95-95.7,90.05-115.8,84.26,55.5,142.37,35.4,32-95.7,90.06-115.81"/></g><polygon id="Triangle" class="cls-3" points="511.16 1422.93 1102.89 784.6 1154.45 1509.31 511.16 1422.93"/><circle id="Blue_Circle" data-name="Blue Circle" class="cls-4" cx="936.94" cy="864.78" r="282.17"/><g id="Screen"><rect id="Background" class="cls-5" x="62.5" y="666.17" width="1000" height="640" rx="25.01"/><g id="welcome"><path class="cls-6" d="M445.9,1011.3h.37l9.17-30.59,1.26-5.88,1.19,5.6,9.24,30.87h7.14l14.91-49.63H481l-10.08,37.45L459.5,961.67H454l-7,22.93A145,145,0,0,0,445.9,1011.3Z"/><path class="cls-7" d="M447,984.6l-4.54,14.87-10.22-37.8h-8.05l14.91,49.63h6.84A145,145,0,0,1,447,984.6Z"/><path class="cls-8" d="M514.94,985.65a8.32,8.32,0,0,0-2.63-1.82,8.54,8.54,0,0,0-3.46-.67,7.5,7.5,0,0,0-3.05.63,9.88,9.88,0,0,0-2.66,1.75,10.83,10.83,0,0,0-2.1,2.66,12.59,12.59,0,0,0-1.29,3.36h17.71a11.06,11.06,0,0,0-.77-3.22A8.56,8.56,0,0,0,514.94,985.65Z"/><path class="cls-9" d="M523.55,988.31a18.07,18.07,0,0,0-3.33-6.41,13,13,0,0,0-5-3.71,16.63,16.63,0,0,0-6.33-1.19,14.78,14.78,0,0,0-6.3,1.37,16.42,16.42,0,0,0-5.15,3.74,18.12,18.12,0,0,0-3.5,5.6,18.31,18.31,0,0,0-1.29,6.86,17.49,17.49,0,0,0,10.67,16.21,17.14,17.14,0,0,0,6.83,1.36,19.94,19.94,0,0,0,7.73-1.47,18.21,18.21,0,0,0,6-3.92l-4.2-4.2a12.48,12.48,0,0,1-8.82,3.57,11.18,11.18,0,0,1-3.75-.63,10.88,10.88,0,0,1-3.22-1.78,12,12,0,0,1-2.48-2.73,11.23,11.23,0,0,1-1.54-3.4h24.92A32,32,0,0,0,523.55,988.31Zm-23.8,3.25A12.59,12.59,0,0,1,501,988.2a10.83,10.83,0,0,1,2.1-2.66,9.88,9.88,0,0,1,2.66-1.75,7.5,7.5,0,0,1,3.05-.63,8.54,8.54,0,0,1,3.46.67,8.32,8.32,0,0,1,2.63,1.82,8.56,8.56,0,0,1,1.75,2.69,11.06,11.06,0,0,1,.77,3.22Z"/><path class="cls-6" d="M538.46,960.2h-6.79v5.15c2.26-.72,4.53-1.45,6.79-2.2Z"/><path class="cls-9" d="M531.67,965.35v45.95h6.79V963.15C536.2,963.9,533.93,964.63,531.67,965.35Z"/><path class="cls-9" d="M561.48,1012.14a15.6,15.6,0,0,0,7.57-1.89c.57-3,1.24-6,2-9l-.6-.52a11.17,11.17,0,0,1-3.64,3.92,8.86,8.86,0,0,1-5,1.47,9.07,9.07,0,0,1-4-.91,10.35,10.35,0,0,1-3.29-2.48,12,12,0,0,1-2.2-3.68,12.79,12.79,0,0,1,0-9,11.58,11.58,0,0,1,2.2-3.64,10.29,10.29,0,0,1,3.29-2.41,9.58,9.58,0,0,1,8.58.28A10.17,10.17,0,0,1,570,987.5l4.75-3.71a16.9,16.9,0,0,0-5.73-5,16.33,16.33,0,0,0-14-.45,16.6,16.6,0,0,0-5.3,3.74,18.16,18.16,0,0,0-4.89,12.46,18.16,18.16,0,0,0,4.89,12.46,16.48,16.48,0,0,0,5.3,3.75A15.8,15.8,0,0,0,561.48,1012.14Z"/><path class="cls-10" d="M569.25,1010.15a16.61,16.61,0,0,0,5.81-5.36l-4-3.54c-.75,3-1.42,6-2,9A1.24,1.24,0,0,0,569.25,1010.15Z"/><path class="cls-8" d="M603.4,1002.72a11.93,11.93,0,0,0,2.11-3.69,13.48,13.48,0,0,0,0-9,11.55,11.55,0,0,0-2.11-3.66,9.93,9.93,0,0,0-3.16-2.45,8.56,8.56,0,0,0-7.72,0,10.32,10.32,0,0,0-3.2,2.45,11.25,11.25,0,0,0-2.14,3.66,13.31,13.31,0,0,0,0,9,11.61,11.61,0,0,0,2.14,3.69,10.29,10.29,0,0,0,3.2,2.49,8.64,8.64,0,0,0,7.72,0A9.92,9.92,0,0,0,603.4,1002.72Z"/><path class="cls-10" d="M602.92,1010.78a16.62,16.62,0,0,0,5.36-3.75,18.26,18.26,0,0,0,3.6-19.32,18,18,0,0,0-3.6-5.6,16.75,16.75,0,0,0-5.36-3.74,16.22,16.22,0,0,0-13,0,16.91,16.91,0,0,0-5.32,3.74,18.24,18.24,0,0,0-3.61,19.32,17.8,17.8,0,0,0,3.61,5.6,16.78,16.78,0,0,0,5.32,3.75,16.33,16.33,0,0,0,13,0Zm-10.4-5.57a10.29,10.29,0,0,1-3.2-2.49,11.61,11.61,0,0,1-2.14-3.69,13.31,13.31,0,0,1,0-9,11.25,11.25,0,0,1,2.14-3.66,10.32,10.32,0,0,1,3.2-2.45,8.56,8.56,0,0,1,7.72,0,9.93,9.93,0,0,1,3.16,2.45,11.55,11.55,0,0,1,2.11,3.66,13.48,13.48,0,0,1,0,9,11.93,11.93,0,0,1-2.11,3.69,9.92,9.92,0,0,1-3.16,2.49,8.64,8.64,0,0,1-7.72,0Z"/><path class="cls-10" d="M662.35,1011.3V991a18.8,18.8,0,0,0-1.12-7.07,11.17,11.17,0,0,0-2.87-4.27,9.61,9.61,0,0,0-3.78-2.1,14.57,14.57,0,0,0-3.85-.56,9.25,9.25,0,0,0-5.14,1.58,10.69,10.69,0,0,0-3.61,3.74,8.61,8.61,0,0,0-2-2.62,10.4,10.4,0,0,0-2.48-1.61,11.13,11.13,0,0,0-2.52-.84,11.68,11.68,0,0,0-2.21-.25,8,8,0,0,0-4.27,1.09,12.87,12.87,0,0,0-3,2.55l-1.4-2.87h-5.39v33.53h6.79V989.81a8,8,0,0,1,1.86-5,5,5,0,0,1,3.67-1.61,6.52,6.52,0,0,1,4.73,1.72q1.78,1.71,1.78,6v20.37h6.37V991c0-2.7.56-4.69,1.68-6a5.11,5.11,0,0,1,3.92-1.89,6.52,6.52,0,0,1,4.73,1.72q1.78,1.71,1.78,6v20.37Z"/><path class="cls-8" d="M692.8,988.34a8.39,8.39,0,0,0-1.75-2.69,8.17,8.17,0,0,0-2.62-1.82,8.59,8.59,0,0,0-3.47-.67,7.46,7.46,0,0,0-3,.63,9.73,9.73,0,0,0-2.66,1.75,10.83,10.83,0,0,0-2.1,2.66,12.28,12.28,0,0,0-1.3,3.36h17.71A10.75,10.75,0,0,0,692.8,988.34Z"/><path class="cls-10" d="M671.9,989.54c-.32-1.22-.68-2.41-1.08-3.56a18.17,18.17,0,0,0-2.1,8.59,17.52,17.52,0,0,0,4.88,12.2A53.37,53.37,0,0,0,671.9,989.54Z"/><path class="cls-11" d="M699.94,1006.75l-4.2-4.2a12.43,12.43,0,0,1-8.82,3.57,11.17,11.17,0,0,1-3.74-.63,10.76,10.76,0,0,1-3.22-1.78,12,12,0,0,1-2.49-2.73,11.48,11.48,0,0,1-1.54-3.4h24.92a31.63,31.63,0,0,0-1.19-9.27,17.89,17.89,0,0,0-3.32-6.41,13.17,13.17,0,0,0-5-3.71A16.64,16.64,0,0,0,685,977a14.78,14.78,0,0,0-6.3,1.37,16.38,16.38,0,0,0-5.14,3.74,17.74,17.74,0,0,0-2.7,3.87c.4,1.15.76,2.34,1.08,3.56a53.37,53.37,0,0,1,1.7,17.23c.08.09.15.18.23.26a17.52,17.52,0,0,0,5.57,3.75,17.13,17.13,0,0,0,6.82,1.36,20,20,0,0,0,7.74-1.47A18.17,18.17,0,0,0,699.94,1006.75ZM677.16,988.2a10.83,10.83,0,0,1,2.1-2.66,9.73,9.73,0,0,1,2.66-1.75,7.46,7.46,0,0,1,3-.63,8.59,8.59,0,0,1,3.47.67,8.17,8.17,0,0,1,2.62,1.82,8.39,8.39,0,0,1,1.75,2.69,10.75,10.75,0,0,1,.77,3.22H675.86A12.28,12.28,0,0,1,677.16,988.2Z"/></g><g id="Controls"><circle id="Close" class="cls-12" cx="96" cy="698.67" r="7.5"/><circle id="Reduce" class="cls-13" cx="121" cy="698.67" r="7.5"/><circle id="Open" class="cls-14" cx="146" cy="698.67" r="7.5"/></g></g><circle id="Orange_Circle" data-name="Orange Circle" class="cls-13" cx="88.5" cy="1356.1" r="187.47"/></g></svg>