<svg xmlns="http://www.w3.org/2000/svg" viewBox="0 0 2880 1800"><defs><style>.cls-1{fill:#b3daff;}.cls-2,.cls-3,.cls-9{fill:none;}.cls-2,.cls-3{stroke:#ff9;stroke-miterlimit:10;}.cls-2{stroke-width:50px;}.cls-3{stroke-width:30px;}.cls-4{fill:#b3b8ff;}.cls-5{fill:#ff9;}.cls-6{fill:#333;}.cls-7{fill:#fa5;}.cls-8{fill:#d30;}.cls-10{fill:#ffe855;}.cls-11{fill:#3ea;}.cls-12{fill:#3bf;}.cls-13{fill:#ffa6a6;}.cls-14{fill:#ffcaa6;}.cls-15{fill:#a6ffad;}</style></defs><title>background-home</title><g id="Pc"><circle id="Blue_Circle" data-name="Blue Circle" class="cls-1" cx="567.55" cy="261.54" r="129.72"/><g id="Yellow_Zig_Zag" data-name="Yellow Zig Zag"><path class="cls-2" d="M-13.08,344.34c58.11-20.1,84.26,55.51,142.36,35.41S161.23,284,219.34,263.94s84.26,55.51,142.36,35.41,31.95-95.71,90.06-115.81S536,239,594.13,218.94s32-95.7,90.06-115.8"/></g><line id="Yellow_Line" data-name="Yellow Line" class="cls-3" x1="2492.48" y1="800" x2="2665.53" y2="1543.05"/><rect id="Purple_Rectangle" data-name="Purple Rectangle" class="cls-4" x="2566.72" y="1145.81" width="330.56" height="330.56" transform="translate(532.35 -773.21) rotate(17.82)"/><polygon id="Triangle" class="cls-5" points="1388.66 1154 1980.39 515.67 2031.95 1240.38 1388.66 1154"/><circle id="Blue_Circle-2" data-name="Blue Circle" class="cls-1" cx="1814.44" cy="543.72" r="282.17"/><g id="Screen"><path id="Background" class="cls-6" d="M1915,1120H965a25,25,0,0,1-25-25V505a25,25,0,0,1,25-25h950a25,25,0,0,1,25,25v590A25,25,0,0,1,1915,1120Z"/><g id="welcome"><path class="cls-7" d="M1323.4,825.13h.37l9.17-30.59,1.26-5.88,1.19,5.6,9.24,30.87h7.14l14.91-49.63h-8.19L1348.41,813,1337,775.5h-5.53l-7,22.93A145,145,0,0,0,1323.4,825.13Z"/><path class="cls-8" d="M1324.46,798.43l-4.54,14.87-10.22-37.8h-8l14.91,49.63h6.84A145,145,0,0,1,1324.46,798.43Z"/><path class="cls-9" d="M1392.44,799.47a8.22,8.22,0,0,0-6.09-2.48,7.5,7.5,0,0,0-3,.63,9.65,9.65,0,0,0-2.66,1.75,10.65,10.65,0,0,0-2.1,2.66,12.59,12.59,0,0,0-1.29,3.36H1395a11.06,11.06,0,0,0-.77-3.22A8.61,8.61,0,0,0,1392.44,799.47Z"/><path class="cls-10" d="M1401.05,802.14a18.07,18.07,0,0,0-3.33-6.41,12.93,12.93,0,0,0-5-3.71,16.63,16.63,0,0,0-6.33-1.19,14.78,14.78,0,0,0-6.3,1.37,16.12,16.12,0,0,0-5.15,3.74,18,18,0,0,0-3.5,5.6,18.27,18.27,0,0,0-1.29,6.86,17.45,17.45,0,0,0,10.67,16.2,17.15,17.15,0,0,0,6.83,1.37,19.94,19.94,0,0,0,7.73-1.47,18.37,18.37,0,0,0,6-3.92l-4.2-4.2a12.48,12.48,0,0,1-8.82,3.57,11.1,11.1,0,0,1-7-2.41,12.24,12.24,0,0,1-2.48-2.74,11.18,11.18,0,0,1-1.54-3.39h24.92A31.93,31.93,0,0,0,1401.05,802.14Zm-23.8,3.25a12.59,12.59,0,0,1,1.29-3.36,10.65,10.65,0,0,1,2.1-2.66,9.65,9.65,0,0,1,2.66-1.75,7.5,7.5,0,0,1,3-.63,8.22,8.22,0,0,1,6.09,2.48,8.61,8.61,0,0,1,1.75,2.7,11.06,11.06,0,0,1,.77,3.22Z"/><path class="cls-7" d="M1416,774h-6.79v5.14c2.26-.71,4.53-1.44,6.79-2.2Z"/><path class="cls-10" d="M1409.17,779.17v46H1416V777C1413.7,777.73,1411.43,778.46,1409.17,779.17Z"/><path class="cls-10" d="M1439,826a15.6,15.6,0,0,0,7.57-1.89c.57-3,1.24-6,2-9l-.6-.52a11.25,11.25,0,0,1-3.64,3.92,8.86,8.86,0,0,1-5,1.47,9.07,9.07,0,0,1-4-.91,10.53,10.53,0,0,1-3.29-2.49,11.84,11.84,0,0,1-2.2-3.67,12.79,12.79,0,0,1,0-9,11.58,11.58,0,0,1,2.2-3.64,10.14,10.14,0,0,1,3.29-2.41,9.32,9.32,0,0,1,4-.88,9.59,9.59,0,0,1,4.59,1.15,10.3,10.3,0,0,1,3.54,3.19l4.75-3.71a16.79,16.79,0,0,0-5.73-5,16.33,16.33,0,0,0-14-.45,16.3,16.3,0,0,0-5.3,3.74,18.27,18.27,0,0,0,0,24.92,16.3,16.3,0,0,0,5.3,3.74A15.81,15.81,0,0,0,1439,826Z"/><path class="cls-11" d="M1446.75,824a16.58,16.58,0,0,0,5.81-5.35l-4-3.54c-.75,3-1.42,6-2,9Z"/><path class="cls-9" d="M1480.9,816.55a12.17,12.17,0,0,0,2.11-3.69,13.51,13.51,0,0,0,0-9,11.61,11.61,0,0,0-2.11-3.65,10.11,10.11,0,0,0-3.16-2.46,8.64,8.64,0,0,0-7.72,0,10.5,10.5,0,0,0-3.2,2.46,11.31,11.31,0,0,0-2.14,3.65,13.34,13.34,0,0,0,0,9,11.83,11.83,0,0,0,2.14,3.69A10.29,10.29,0,0,0,1470,819a8.64,8.64,0,0,0,7.72,0A9.92,9.92,0,0,0,1480.9,816.55Z"/><path class="cls-11" d="M1480.42,824.6a16.44,16.44,0,0,0,5.36-3.74,18.17,18.17,0,0,0,0-24.92,16.44,16.44,0,0,0-5.36-3.74,16.22,16.22,0,0,0-13.05,0,16.59,16.59,0,0,0-5.32,3.74,18.14,18.14,0,0,0,0,24.92,16.59,16.59,0,0,0,5.32,3.74,16.22,16.22,0,0,0,13.05,0ZM1470,819a10.29,10.29,0,0,1-3.2-2.49,11.83,11.83,0,0,1-2.14-3.69,13.34,13.34,0,0,1,0-9,11.31,11.31,0,0,1,2.14-3.65,10.5,10.5,0,0,1,3.2-2.46,8.64,8.64,0,0,1,7.72,0,10.11,10.11,0,0,1,3.16,2.46,11.61,11.61,0,0,1,2.11,3.65,13.51,13.51,0,0,1,0,9,12.17,12.17,0,0,1-2.11,3.69,9.92,9.92,0,0,1-3.16,2.49,8.64,8.64,0,0,1-7.72,0Z"/><path class="cls-11" d="M1539.85,825.13v-20.3a18.8,18.8,0,0,0-1.12-7.07,11.17,11.17,0,0,0-2.87-4.27,9.37,9.37,0,0,0-3.78-2.1,14.57,14.57,0,0,0-3.85-.56,9.17,9.17,0,0,0-5.14,1.58,10.61,10.61,0,0,0-3.61,3.74,8.66,8.66,0,0,0-2-2.63,10.67,10.67,0,0,0-2.48-1.6,11.13,11.13,0,0,0-2.52-.84,10.91,10.91,0,0,0-2.21-.25,7.9,7.9,0,0,0-4.27,1.09,12.87,12.87,0,0,0-3,2.55l-1.4-2.87h-5.39v33.53H1503V803.64a8,8,0,0,1,1.86-5,5,5,0,0,1,3.67-1.61,6.52,6.52,0,0,1,4.73,1.72q1.79,1.71,1.78,6v20.37h6.37v-20.3q0-4.07,1.68-6A5.11,5.11,0,0,1,1527,797a6.52,6.52,0,0,1,4.73,1.72q1.79,1.71,1.78,6v20.37Z"/><path class="cls-9" d="M1570.3,802.17a8.43,8.43,0,0,0-1.75-2.7,8.3,8.3,0,0,0-2.62-1.81,8.43,8.43,0,0,0-3.47-.67,7.46,7.46,0,0,0-3,.63,9.5,9.5,0,0,0-2.66,1.75,10.65,10.65,0,0,0-2.1,2.66,12.28,12.28,0,0,0-1.3,3.36h17.71A10.75,10.75,0,0,0,1570.3,802.17Z"/><path class="cls-11" d="M1549.4,803.37q-.48-1.83-1.08-3.57c-.29.56-.56,1.14-.8,1.74a18.09,18.09,0,0,0-1.3,6.86,17.52,17.52,0,0,0,4.88,12.2A53.34,53.34,0,0,0,1549.4,803.37Z"/><path class="cls-12" d="M1577.44,820.58l-4.2-4.2a12.43,12.43,0,0,1-8.82,3.57,11.17,11.17,0,0,1-3.74-.63,11,11,0,0,1-3.22-1.78,12.29,12.29,0,0,1-2.49-2.74,11.43,11.43,0,0,1-1.54-3.39h24.92a31.59,31.59,0,0,0-1.19-9.27,17.89,17.89,0,0,0-3.32-6.41,13.07,13.07,0,0,0-5-3.71,16.64,16.64,0,0,0-6.34-1.19,14.78,14.78,0,0,0-6.3,1.37,16.08,16.08,0,0,0-5.14,3.74,17.68,17.68,0,0,0-2.7,3.86q.6,1.74,1.08,3.57a53.34,53.34,0,0,1,1.7,17.23c.08.09.15.18.23.26a17.33,17.33,0,0,0,5.57,3.74,17.13,17.13,0,0,0,6.82,1.37,20,20,0,0,0,7.74-1.47A18.33,18.33,0,0,0,1577.44,820.58ZM1554.66,802a10.65,10.65,0,0,1,2.1-2.66,9.5,9.5,0,0,1,2.66-1.75,7.46,7.46,0,0,1,3-.63,8.43,8.43,0,0,1,3.47.67,8.3,8.3,0,0,1,2.62,1.81,8.43,8.43,0,0,1,1.75,2.7,10.75,10.75,0,0,1,.77,3.22h-17.71A12.28,12.28,0,0,1,1554.66,802Z"/></g><g id="Controls"><circle id="Close" class="cls-13" cx="973.5" cy="512.5" r="7.5"/><circle id="Reduce" class="cls-14" cx="998.5" cy="512.5" r="7.5"/><circle id="Open" class="cls-15" cx="1023.5" cy="512.5" r="7.5"/></g></g><circle id="Orange_Circle" data-name="Orange Circle" class="cls-14" cx="1006.84" cy="1037.05" r="187.47"/></g></svg>